<?xml version="1.0" encoding="UTF-8"?>
<svg version="1.1" xmlns="http://www.w3.org/2000/svg" width="344" height="226">
<path d="M0 0 C21.36016924 -0.16043524 21.36016924 -0.16043524 30.54882812 -0.1953125 C36.78960986 -0.21911384 43.03015421 -0.24710103 49.27075195 -0.30175781 C54.30880247 -0.34560024 59.346598 -0.3692172 64.38482475 -0.37950897 C66.29552658 -0.38683207 68.20621634 -0.40112977 70.11680794 -0.42292023 C91.49384716 -0.65676602 110.15063766 3.74490655 125.99145508 18.9296875 C127.3438761 20.27027165 128.67266697 21.63457131 130 23 C131.03253906 24.05380859 131.03253906 24.05380859 132.0859375 25.12890625 C148.56403185 42.93820037 151.17511926 65.93396479 151.11352539 89.08837891 C151.1132428 90.58737181 151.11340266 92.08636485 151.1139679 93.58535767 C151.11425306 97.62597127 151.10840193 101.66655477 151.10139394 105.70716143 C151.09511345 109.94054541 151.0945529 114.17393019 151.09336853 118.40731812 C151.090269 126.4110003 151.0820743 134.41466871 151.07201904 142.41834486 C151.05871716 153.24278906 151.05334686 164.06723707 151.04751682 174.89168739 C151.0381334 191.9278019 151.0182053 208.96388735 151 226 C125.92 226 100.84 226 75 226 C75 176.5 75 127 75 76 C50.58 76 26.16 76 1 76 C1 125.5 1 175 1 226 C-24.08 226 -49.16 226 -75 226 C-75 176.17 -75 126.34 -75 75 C-50.25 75 -25.5 75 0 75 C0 50.25 0 25.5 0 0 Z " fill="#03B484" transform="translate(75,0)"/>
<path d="M0 0 C25.08 0 50.16 0 76 0 C76 74.58 76 149.16 76 226 C52.02937746 223.3365975 33.64624105 217.11870779 17.4296875 199.15234375 C3.57615666 181.70628712 -0.16962056 162.5407047 -0.11352539 140.77148438 C-0.11324298 139.23337811 -0.11340231 137.69527171 -0.1139679 136.15716553 C-0.11425376 132.0007351 -0.1083912 127.84433377 -0.10139394 123.68791008 C-0.09512521 119.3370669 -0.09455382 114.98622298 -0.09336853 110.63537598 C-0.09026557 102.40496519 -0.08206618 94.17456776 -0.07201904 85.94416285 C-0.05873104 74.81638053 -0.05334963 63.68859453 -0.04751682 52.56080627 C-0.03812557 35.04052753 -0.01819973 17.52027694 0 0 Z " fill="#03B484" transform="translate(268,0)"/>
</svg>
